# xmcd CD database file
#
# Track frame offsets:
#	150
#	19695
#	40770
#	54795
#	71675
#	91133
#	108895
#	130660
#	149460
#
# Disc length: 2388 seconds
#
# Revision: 0
# Processed by: cddbd v1.5PL3 Copyright (c) Steve Scherf et al.
# Submitted via: CDex 1.51
#
DISCID=6c095209
DTITLE=島田奈美 - 放課後のスケッチ
DYEAR=1986
DGENRE=Pop
TTITLE0=ガラスの幻想曲(ファンタジー)
TTITLE1=シンデレラのつまさき
TTITLE2=純白
TTITLE3=よい子は恋泥棒
TTITLE4=ルピナスの放課後
TTITLE5=負けないで...片想い
TTITLE6=クラスメイト
TTITLE7=メリーゴーランドの女の子
TTITLE8=ブルードットの恋(ロング・バージョン)
EXTD=YEAR: 1986
EXTT0=
EXTT1=
EXTT2=
EXTT3=
EXTT4=
EXTT5=
EXTT6=
EXTT7=
EXTT8=
PLAYORDER=
